<svg xmlns="http://www.w3.org/2000/svg" viewBox="0 0 32 42"><g id="Layer_2" data-name="Layer 2"><g id="Layer_1-2" data-name="Layer 1"><path d="M29,42H3a3,3,0,0,1-3-3V3A3,3,0,0,1,3,0H22.41L32,9.59V39A3,3,0,0,1,29,42ZM3,2A1,1,0,0,0,2,3V39a1,1,0,0,0,1,1H29a1,1,0,0,0,1-1V10.41L21.59,2Z"/><path d="M31,11H24a3,3,0,0,1-3-3V1a1,1,0,0,1,.62-.92,1,1,0,0,1,1.09.21l9,9a1,1,0,0,1,.21,1.09A1,1,0,0,1,31,11ZM23,3.41V8a1,1,0,0,0,1,1h4.59Z"/><rect x="8" y="22" width="16" height="2" transform="translate(-11.58 18.05) rotate(-45)"/><rect x="15" y="15" width="2" height="16" transform="translate(-11.58 18.05) rotate(-45)"/></g></g></svg>