<svg xmlns="http://www.w3.org/2000/svg" viewBox="0 0 40 40"><g id="Layer_2" data-name="Layer 2"><g id="Layer_1-2" data-name="Layer 1"><path d="M7,40H0V24H7ZM2,38H5V26H2Z"/><path d="M18,40H11V19h7Zm-5-2h3V21H13Z"/><path d="M29,40H22V16h7Zm-5-2h3V18H24Z"/><path d="M40,40H33V10h7Zm-5-2h3V12H35Z"/><path d="M1,17a1,1,0,0,1-.52-1.85l13-8a1,1,0,0,1,1,0l9.31,5.58L35.27.32A1,1,0,0,1,36.36.07,1,1,0,0,1,37,1V4a1,1,0,0,1-2,0V3.56L24.74,14.68a1,1,0,0,1-1.25.18L14,9.17,1.52,16.85A1,1,0,0,1,1,17Z"/><path d="M36,2H33a1,1,0,0,1,0-2h3a1,1,0,0,1,0,2Z"/></g></g></svg>