<svg xmlns="http://www.w3.org/2000/svg" viewBox="0 0 41 40"><g id="Layer_2" data-name="Layer 2"><g id="Layer_1-2" data-name="Layer 1"><path d="M22,32H3a3,3,0,0,1-3-3V5A3,3,0,0,1,3,2H29a3,3,0,0,1,3,3V22H30V5a1,1,0,0,0-1-1H3A1,1,0,0,0,2,5V29a1,1,0,0,0,1,1H22Z"/><rect x="1" y="8" width="30" height="2"/><rect x="5" width="2" height="3"/><rect x="25" width="2" height="3"/><path d="M31,40a9.77,9.77,0,0,1-10-9.5A9.77,9.77,0,0,1,31,21a9.77,9.77,0,0,1,10,9.5A9.77,9.77,0,0,1,31,40Zm0-17a7.77,7.77,0,0,0-8,7.5A7.77,7.77,0,0,0,31,38a7.77,7.77,0,0,0,8-7.5A7.77,7.77,0,0,0,31,23Z"/><rect x="30" y="25" width="2" height="6"/><rect x="30" y="30" width="5" height="2"/><path d="M11,19H5V13h6ZM7,17H9V15H7Z"/><path d="M11,27H5V21h6ZM7,25H9V23H7Z"/><path d="M19,27H13V21h6Zm-4-2h2V23H15Z"/><path d="M19,19H13V13h6Zm-4-2h2V15H15Z"/><path d="M27,19H21V13h6Zm-4-2h2V15H23Z"/></g></g></svg>