<svg xmlns="http://www.w3.org/2000/svg" viewBox="0 0 48 42"><g id="Layer_2" data-name="Layer 2"><g id="Layer_1-2" data-name="Layer 1"><path d="M28,31H20a2,2,0,0,1-2-2V27h2v2h8V26.57l-9-5.42a2,2,0,0,1-1-1.72V17a2,2,0,0,1,2-2h8a2,2,0,0,1,2,2v2H28V17H20v2.43l9,5.42a2,2,0,0,1,1,1.72V29A2,2,0,0,1,28,31Z"/><rect x="23" y="12" width="2" height="4"/><rect x="23" y="30" width="2" height="4"/><path d="M45,38H3a3,3,0,0,1-3-3V11A3,3,0,0,1,3,8H45a3,3,0,0,1,3,3V35A3,3,0,0,1,45,38ZM3,10a1,1,0,0,0-1,1V35a1,1,0,0,0,1,1H45a1,1,0,0,0,1-1V11a1,1,0,0,0-1-1Z"/><path d="M34,10H14V3a3,3,0,0,1,3-3H31a3,3,0,0,1,3,3ZM16,8H32V3a1,1,0,0,0-1-1H17a1,1,0,0,0-1,1Z"/><path d="M13,42H8a2,2,0,0,1-2-2V36h9v4A2,2,0,0,1,13,42ZM8,38v2h5V38Z"/><path d="M39,42H34a2,2,0,0,1-2-2V36h9v4A2,2,0,0,1,39,42Zm-5-4v2h5V38Z"/></g></g></svg>