<svg xmlns="http://www.w3.org/2000/svg" viewBox="0 0 42.21 40.49"><g id="Layer_2" data-name="Layer 2"><g id="Layer_1-2" data-name="Layer 1"><path d="M33.2,40.49H13.66a2,2,0,0,1-2-2V20.24c0-.36.12-.66,1-1.92,1-1.44,2.69-3.82,4.07-5.74,1.71-2.36,3.17-4.39,3.74-5.3a6.61,6.61,0,0,0,.47-3.09,14.64,14.64,0,0,1,.05-1.52,4,4,0,0,1,.34-1.41l.09-.18A1.17,1.17,0,0,1,21.44,1L21.5.87a.78.78,0,0,1,.08-.1l.05-.06,0,0,.09-.09A1,1,0,0,1,21.9.45l0,0a1.37,1.37,0,0,1,.2-.13l.19-.1.13-.05.18-.06A2.2,2.2,0,0,1,23,0h.46l.22,0,.25,0,.1,0A5.47,5.47,0,0,1,27.5,2.7c1.88,3.3.47,8.36-.13,10.52-.08.29-.14.52-.17.66a3.66,3.66,0,0,0-.06,1.74H37.82A4.4,4.4,0,0,1,42.21,20a1.85,1.85,0,0,1,0,.23c0,.06,0,.15,0,.24a5,5,0,0,1-.1.6s0,.15,0,.17-.07.21-.07.22a4,4,0,0,1-.32.7l-.11.18-.05.07-.11.16a2.42,2.42,0,0,1-.19.24.67.67,0,0,1-.1.12l-.1.11-.22.21-.09.08a3.85,3.85,0,0,1-.52.38l-.16.1a1.34,1.34,0,0,0,.11.14l.12.17a3.23,3.23,0,0,1,.27.44,3.63,3.63,0,0,1,.19.43,4,4,0,0,1,.14.45c0,.1,0,.2.07.3s0,.13,0,.21,0,.1,0,.17h0a.66.66,0,0,1,0,.13s0,.1,0,.18l0,.35a4.09,4.09,0,0,1-.1.61,1,1,0,0,1,0,.14,1.17,1.17,0,0,1-.08.25s0,.11,0,.12l-.11.26-.14.26a2.29,2.29,0,0,1-.15.24l-.15.22c-.06.07-.11.14-.17.2l0,0-.18.18a2.39,2.39,0,0,1-.23.22l-.13.1-.23.17-.09.06-.17.1-.07,0a.83.83,0,0,1,.07.13l.06.11a5.14,5.14,0,0,1,.22.59l.09.39s0,.12,0,.14h0a.41.41,0,0,1,0,.09,2.91,2.91,0,0,1,0,.5v.33a.79.79,0,0,1,0,.17.68.68,0,0,1,0,.14,2.33,2.33,0,0,1-.05.28h0l0,.14s0,.07,0,.13l-.08.21a1.77,1.77,0,0,1-.11.28,4.32,4.32,0,0,1-.73,1.09l-.13.13-.3.26a1.79,1.79,0,0,1-.28.2s-.05,0-.1.07l-.29.17h0l-.09,0-.16.07-.14.06a3.2,3.2,0,0,1-.55.17h0l1-.18a2,2,0,0,1,0,.24s0,.12,0,.2,0,.23,0,.31l0,.37a2.89,2.89,0,0,1-.07.44s0,.1,0,.11a2.69,2.69,0,0,1-.09.32,2,2,0,0,1-.08.22,3.82,3.82,0,0,1-.21.46,3,3,0,0,1-.15.26l-.07.11-.29.37-.08.08-.15.15a3.64,3.64,0,0,1-.61.49,3.36,3.36,0,0,1-.56.31l-.17.07-.09,0A3.92,3.92,0,0,1,33.2,40.49Zm1.44-2.59.78.63-.71-.7c.08-.1.13-.15.17-.21l.13-.21a1.74,1.74,0,0,0,.1-.23l0-.1s0-.09,0-.14,0-.22.05-.29v-.32s0-.14,0-.16l0-.1,0-.12a.23.23,0,0,0,0-.11l.79-.36h0l-.82.27a1.38,1.38,0,0,0-.14-.3A1,1,0,0,1,35.67,34a2,2,0,0,0,.35-.1,2.59,2.59,0,0,0,.34-.17l.64.78-.54-.84.1-.08.09-.08.1-.09a2.23,2.23,0,0,0,.38-.54l.08-.19,0-.1a.45.45,0,0,0,0-.11,1.18,1.18,0,0,0,0-.2l0-.1V32a2.37,2.37,0,0,0,0-.31.41.41,0,0,1,0-.11l.95-.32-1,.21.94-.34-1,.22a1.57,1.57,0,0,0-.1-.28,1.83,1.83,0,0,0-.3-.46,2,2,0,0,0-.36-.35,1,1,0,0,1,.53-1.8,1.92,1.92,0,0,0,.62-.14l.16-.07.13-.07.61.8L38,28.14a.64.64,0,0,0,.14-.1l.17-.15.09-.1h0l.16-.21.07-.12s.07-.13.07-.14l.06-.13.06-.19a2.54,2.54,0,0,0,.07-.37v-.39h0a1.1,1.1,0,0,1,0-.16.7.7,0,0,0,0-.14,1.11,1.11,0,0,0-.07-.22,1.46,1.46,0,0,0-.09-.21,1.6,1.6,0,0,0-.13-.21l-.08-.12L38.36,25a1.29,1.29,0,0,0-.17-.16l-.12-.09a2,2,0,0,0-1.17-.37,1,1,0,0,1,0-2h.92a2.39,2.39,0,0,0,1-.2l.15-.07.16-.1a1.51,1.51,0,0,0,.26-.18l.75.67-.66-.75a1.36,1.36,0,0,1,.12-.12l.11-.13.08-.1s.06-.08.08-.12l0,0,.06-.09a2.59,2.59,0,0,0,.17-.38l1,.19-.93-.37v-.05c0-.06,0-.16,0-.25l0-.19V20a2.39,2.39,0,0,0-2.39-2.39H26.66a1,1,0,0,1-.45-.11c-.28-.14-1.62-1-1-4.05,0-.17.11-.43.2-.77.49-1.76,1.79-6.43.33-9A3.5,3.5,0,0,0,23.56,2l-.19,0h-.18V2l0,0h0l0,0h0a2,2,0,0,0-.2.81c0,.41,0,.87,0,1.35a7.88,7.88,0,0,1-.78,4.16c-.61,1-2,2.92-3.81,5.39-1.37,1.91-3.08,4.27-4,5.69a11.34,11.34,0,0,0-.63,1v18l19.57,0a2.11,2.11,0,0,0,.74-.14l.06,0,0,0a1.71,1.71,0,0,0,.27-.14l.17-.13ZM23.11,2.05,23,2.11Zm0,0h0l0-.06h0Zm.05-.07Zm-.1-.09.1.09V1.88l-.33-.82Z"/><path d="M8.42,40.49H2.2A2.21,2.21,0,0,1,0,38.29V18.11a2.21,2.21,0,0,1,2.2-2.2H8.42a2.21,2.21,0,0,1,2.21,2.2V38.29A2.21,2.21,0,0,1,8.42,40.49ZM2.2,17.91a.2.2,0,0,0-.2.2V38.29a.2.2,0,0,0,.2.2H8.42a.2.2,0,0,0,.21-.2V18.11a.2.2,0,0,0-.21-.2Z"/><rect x="4.63" y="34.49" width="2" height="2"/></g></g></svg>